<svg xmlns="http://www.w3.org/2000/svg" xmlns:xlink="http://www.w3.org/1999/xlink" width="500" zoomAndPan="magnify" viewBox="0 0 375 374.999991" height="500" preserveAspectRatio="xMidYMid meet" version="1.0"><defs><g/><clipPath id="77022ff066"><path d="M 75 0 L 300 0 C 341.421875 0 375 33.578125 375 75 L 375 300 C 375 341.421875 341.421875 375 300 375 L 75 375 C 33.578125 375 0 341.421875 0 300 L 0 75 C 0 33.578125 33.578125 0 75 0 Z M 75 0 " clip-rule="nonzero"/></clipPath></defs><g clip-path="url(#77022ff066)"><rect x="-37.5" width="450" fill="#3d8e84" y="-37.499999" height="449.999989" fill-opacity="1"/></g><g fill="#ffa971" fill-opacity="1"><g transform="translate(146.925345, 325.856801)"><g><path d="M 131.78125 -167.90625 L 198.65625 -167.90625 L 138.375 -98.84375 L 199.875 0 L 136.171875 0 L 101.28125 -61.5 L 72 -37.578125 L 72 0 L 18.0625 0 L 18.0625 -167.90625 L 72 -167.90625 L 72 -96.15625 Z M 131.78125 -167.90625 "/></g></g></g><g fill="#f0f0f0" fill-opacity="1"><g transform="translate(13.71442, 263.556455)"><g><path d="M 149.5625 -223.6875 C 163.425781 -223.6875 175.773438 -220.488281 186.609375 -214.09375 C 197.453125 -207.695312 205.90625 -198.914062 211.96875 -187.75 C 218.039062 -176.59375 221.078125 -164.078125 221.078125 -150.203125 L 221.078125 -145.984375 C 221.078125 -132.109375 218.039062 -119.535156 211.96875 -108.265625 C 205.90625 -96.992188 197.453125 -88.160156 186.609375 -81.765625 C 175.773438 -75.367188 163.425781 -72.171875 149.5625 -72.171875 L 95.90625 -72.171875 L 95.90625 0 L 24.0625 0 L 24.0625 -223.6875 Z M 95.90625 -124.515625 L 125.5 -124.515625 C 133.082031 -124.515625 138.769531 -126.46875 142.5625 -130.375 C 146.351562 -134.28125 148.25 -139.59375 148.25 -146.3125 L 148.25 -148.90625 C 148.25 -155.84375 146.351562 -161.207031 142.5625 -165 C 138.769531 -168.789062 133.082031 -170.6875 125.5 -170.6875 L 95.90625 -170.6875 Z M 95.90625 -124.515625 "/></g></g></g></svg>