<svg xmlns="http://www.w3.org/2000/svg" xmlns:xlink="http://www.w3.org/1999/xlink" width="500" zoomAndPan="magnify" viewBox="0 0 375 374.999991" height="500" preserveAspectRatio="xMidYMid meet" version="1.0"><defs><g/><clipPath id="dfa6608b18"><path d="M 98.808594 62.75 L 197.191406 62.75 L 197.191406 175.355469 L 98.808594 175.355469 Z M 98.808594 62.75 " clip-rule="nonzero"/></clipPath><clipPath id="9fb5e7dd9d"><path d="M 116.058594 62.75 L 179.941406 62.75 C 184.515625 62.75 188.90625 64.566406 192.140625 67.800781 C 195.375 71.039062 197.191406 75.425781 197.191406 80 L 197.191406 158 C 197.191406 162.574219 195.375 166.964844 192.140625 170.199219 C 188.90625 173.433594 184.515625 175.25 179.941406 175.25 L 116.058594 175.25 C 111.480469 175.25 107.09375 173.433594 103.859375 170.199219 C 100.625 166.964844 98.808594 162.574219 98.808594 158 L 98.808594 80 C 98.808594 75.425781 100.625 71.039062 103.859375 67.800781 C 107.09375 64.566406 111.480469 62.75 116.058594 62.75 Z M 116.058594 62.75 " clip-rule="nonzero"/></clipPath><clipPath id="2e5b4bc650"><path d="M 167.308594 57.042969 L 265.691406 57.042969 L 265.691406 158.886719 L 167.308594 158.886719 Z M 167.308594 57.042969 " clip-rule="nonzero"/></clipPath><clipPath id="b2b5ae772d"><path d="M 184.558594 57.042969 L 248.441406 57.042969 C 253.015625 57.042969 257.40625 58.859375 260.640625 62.09375 C 263.875 65.328125 265.691406 69.71875 265.691406 74.292969 L 265.691406 141.589844 C 265.691406 146.164062 263.875 150.550781 260.640625 153.785156 C 257.40625 157.023438 253.015625 158.839844 248.441406 158.839844 L 184.558594 158.839844 C 179.980469 158.839844 175.59375 157.023438 172.359375 153.785156 C 169.125 150.550781 167.308594 146.164062 167.308594 141.589844 L 167.308594 74.292969 C 167.308594 69.71875 169.125 65.328125 172.359375 62.09375 C 175.59375 58.859375 179.980469 57.042969 184.558594 57.042969 Z M 184.558594 57.042969 " clip-rule="nonzero"/></clipPath><clipPath id="24182cd92f"><path d="M 73.476562 180 L 301.476562 180 L 301.476562 327.488281 L 73.476562 327.488281 Z M 73.476562 180 " clip-rule="nonzero"/></clipPath><clipPath id="905ed48b21"><path d="M 91 47.738281 L 284 47.738281 L 284 193 L 91 193 Z M 91 47.738281 " clip-rule="nonzero"/></clipPath><clipPath id="52f5c6a5f8"><path d="M 94.527344 224.6875 L 291.550781 224.6875 L 291.550781 314.4375 L 94.527344 314.4375 Z M 94.527344 224.6875 " clip-rule="nonzero"/></clipPath><clipPath id="88e213072c"><path d="M 111.777344 224.6875 L 274.046875 224.6875 C 278.621094 224.6875 283.007812 226.507812 286.242188 229.742188 C 289.476562 232.976562 291.296875 237.363281 291.296875 241.9375 L 291.296875 297.1875 C 291.296875 301.761719 289.476562 306.148438 286.242188 309.382812 C 283.007812 312.617188 278.621094 314.4375 274.046875 314.4375 L 111.777344 314.4375 C 107.199219 314.4375 102.8125 312.617188 99.578125 309.382812 C 96.34375 306.148438 94.527344 301.761719 94.527344 297.1875 L 94.527344 241.9375 C 94.527344 237.363281 96.34375 232.976562 99.578125 229.742188 C 102.8125 226.507812 107.199219 224.6875 111.777344 224.6875 Z M 111.777344 224.6875 " clip-rule="nonzero"/></clipPath></defs><g clip-path="url(#dfa6608b18)"><g clip-path="url(#9fb5e7dd9d)"><path fill="#ffa971" d="M 98.808594 62.75 L 197.191406 62.75 L 197.191406 175.355469 L 98.808594 175.355469 Z M 98.808594 62.75 " fill-opacity="1" fill-rule="nonzero"/></g></g><g clip-path="url(#2e5b4bc650)"><g clip-path="url(#b2b5ae772d)"><path fill="#ffa971" d="M 167.308594 57.042969 L 265.691406 57.042969 L 265.691406 158.886719 L 167.308594 158.886719 Z M 167.308594 57.042969 " fill-opacity="1" fill-rule="nonzero"/></g></g><path fill="#3d8e84" d="M 185.65625 246.339844 L 178.277344 246.339844 L 178.277344 290.472656 L 185.65625 290.472656 C 193.792969 290.472656 200.410156 283.875 200.410156 275.761719 L 200.410156 261.050781 C 200.410156 252.9375 193.792969 246.339844 185.65625 246.339844 Z M 185.65625 246.339844 " fill-opacity="1" fill-rule="nonzero"/><path fill="#3d8e84" d="M 126.636719 246.339844 L 119.257812 246.339844 L 119.257812 268.40625 L 126.636719 268.40625 C 132.738281 268.40625 137.703125 263.457031 137.703125 257.375 C 137.703125 251.289062 132.738281 246.339844 126.636719 246.339844 Z M 126.636719 246.339844 " fill-opacity="1" fill-rule="nonzero"/><g clip-path="url(#24182cd92f)"><path fill="#3d8e84" d="M 281.394531 180.140625 L 225.738281 180.140625 C 221.1875 180.140625 216.722656 181.699219 213.171875 184.535156 L 186.984375 205.421875 C 185.800781 206.367188 184.308594 206.886719 182.792969 206.886719 L 93.605469 206.886719 C 82.511719 206.886719 73.488281 215.886719 73.488281 226.949219 L 73.488281 307.191406 C 73.488281 318.253906 82.511719 327.253906 93.605469 327.253906 L 281.394531 327.253906 C 292.488281 327.253906 301.511719 318.253906 301.511719 307.191406 L 301.511719 200.199219 C 301.511719 189.136719 292.488281 180.140625 281.394531 180.140625 Z M 126.636719 283.117188 L 119.257812 283.117188 L 119.257812 297.828125 C 119.257812 301.890625 115.957031 305.183594 111.882812 305.183594 C 107.808594 305.183594 104.503906 301.890625 104.503906 297.828125 L 104.503906 238.984375 C 104.503906 234.921875 107.808594 231.628906 111.882812 231.628906 L 126.636719 231.628906 C 140.871094 231.628906 152.457031 243.179688 152.457031 257.375 C 152.457031 271.566406 140.871094 283.117188 126.636719 283.117188 Z M 215.164062 275.761719 C 215.164062 291.984375 201.925781 305.183594 185.65625 305.183594 L 170.902344 305.183594 C 166.828125 305.183594 163.523438 301.890625 163.523438 297.828125 L 163.523438 238.984375 C 163.523438 234.921875 166.828125 231.628906 170.902344 231.628906 L 185.65625 231.628906 C 201.925781 231.628906 215.164062 244.828125 215.164062 261.050781 Z M 263.117188 261.050781 C 267.191406 261.050781 270.496094 264.34375 270.496094 268.40625 C 270.496094 272.46875 267.191406 275.761719 263.117188 275.761719 L 240.984375 275.761719 L 240.984375 297.828125 C 240.984375 301.890625 237.683594 305.183594 233.609375 305.183594 C 229.535156 305.183594 226.230469 301.890625 226.230469 297.828125 L 226.230469 238.984375 C 226.230469 234.921875 229.535156 231.628906 233.609375 231.628906 L 263.117188 231.628906 C 267.191406 231.628906 270.496094 234.921875 270.496094 238.984375 C 270.496094 243.046875 267.191406 246.339844 263.117188 246.339844 L 240.984375 246.339844 L 240.984375 261.050781 Z M 263.117188 261.050781 " fill-opacity="1" fill-rule="nonzero"/></g><g clip-path="url(#905ed48b21)"><path fill="#3d8e84" d="M 203.949219 173.078125 C 210.074219 168.148438 217.820312 165.425781 225.714844 165.425781 C 225.714844 165.425781 282.742188 165.425781 283.40625 165.5 L 283.40625 69.804688 C 283.40625 57.667969 273.445312 47.738281 261.273438 47.738281 L 113.726562 47.738281 C 101.554688 47.738281 91.59375 57.667969 91.59375 69.804688 L 91.59375 192.277344 C 92.257812 192.203125 179.976562 192.203125 179.976562 192.203125 Z M 128.480469 69.804688 L 246.519531 69.804688 C 250.59375 69.804688 253.894531 73.097656 253.894531 77.160156 C 253.894531 81.222656 250.59375 84.515625 246.519531 84.515625 L 128.480469 84.515625 C 124.40625 84.515625 121.105469 81.222656 121.105469 77.160156 C 121.105469 73.097656 124.40625 69.804688 128.480469 69.804688 Z M 128.480469 99.226562 L 246.519531 99.226562 C 250.59375 99.226562 253.894531 102.519531 253.894531 106.582031 C 253.894531 110.644531 250.59375 113.9375 246.519531 113.9375 L 128.480469 113.9375 C 124.40625 113.9375 121.105469 110.644531 121.105469 106.582031 C 121.105469 102.519531 124.40625 99.226562 128.480469 99.226562 Z M 128.480469 128.648438 L 246.519531 128.648438 C 250.59375 128.648438 253.894531 131.941406 253.894531 136.003906 C 253.894531 140.066406 250.59375 143.359375 246.519531 143.359375 L 128.480469 143.359375 C 124.40625 143.359375 121.105469 140.066406 121.105469 136.003906 C 121.105469 131.941406 124.40625 128.648438 128.480469 128.648438 Z M 121.105469 165.425781 C 121.105469 161.367188 124.40625 158.070312 128.480469 158.070312 L 180.121094 158.070312 C 184.195312 158.070312 187.5 161.367188 187.5 165.425781 C 187.5 169.488281 184.195312 172.78125 180.121094 172.78125 L 128.480469 172.78125 C 124.40625 172.78125 121.105469 169.488281 121.105469 165.425781 Z M 121.105469 165.425781 " fill-opacity="1" fill-rule="nonzero"/></g><g clip-path="url(#52f5c6a5f8)"><g clip-path="url(#88e213072c)"><path fill="#3d8e84" d="M 94.527344 224.6875 L 291.199219 224.6875 L 291.199219 314.4375 L 94.527344 314.4375 Z M 94.527344 224.6875 " fill-opacity="1" fill-rule="nonzero"/></g></g><g fill="#f0f0f0" fill-opacity="1"><g transform="translate(87.672649, 311.937781)"><g><path d="M 59.0625 -88.34375 C 64.539062 -88.34375 69.421875 -87.078125 73.703125 -84.546875 C 77.984375 -82.023438 81.320312 -78.5625 83.71875 -74.15625 C 86.113281 -69.75 87.3125 -64.804688 87.3125 -59.328125 L 87.3125 -57.65625 C 87.3125 -52.175781 86.113281 -47.207031 83.71875 -42.75 C 81.320312 -38.300781 77.984375 -34.8125 73.703125 -32.28125 C 69.421875 -29.757812 64.539062 -28.5 59.0625 -28.5 L 37.875 -28.5 L 37.875 0 L 9.5 0 L 9.5 -88.34375 Z M 37.875 -49.171875 L 49.5625 -49.171875 C 52.5625 -49.171875 54.804688 -49.941406 56.296875 -51.484375 C 57.796875 -53.023438 58.546875 -55.125 58.546875 -57.78125 L 58.546875 -58.8125 C 58.546875 -61.550781 57.796875 -63.664062 56.296875 -65.15625 C 54.804688 -66.65625 52.5625 -67.40625 49.5625 -67.40625 L 37.875 -67.40625 Z M 37.875 -49.171875 "/></g></g></g><g fill="#f0f0f0" fill-opacity="1"><g transform="translate(180.370621, 311.937781)"><g><path d="M 69.34375 -88.34375 L 104.515625 -88.34375 L 72.8125 -52 L 105.171875 0 L 71.65625 0 L 53.28125 -32.359375 L 37.875 -19.78125 L 37.875 0 L 9.5 0 L 9.5 -88.34375 L 37.875 -88.34375 L 37.875 -50.59375 Z M 69.34375 -88.34375 "/></g></g></g></svg>